<svg width="19" height="18" viewBox="0 0 19 18" fill="none" xmlns="http://www.w3.org/2000/svg">
<path d="M18.4 8.99198C18.4 7.81598 17.448 7.19998 16.16 7.19998H12.408C12.688 6.19198 12.8 5.23998 12.8 4.39998C12.8 1.15198 11.904 0.47998 11.12 0.47998C10.616 0.47998 10.224 0.535981 9.71999 0.815981C9.55199 0.927981 9.49599 1.03998 9.43999 1.20798L8.87999 4.23198C8.26399 5.79998 6.75199 7.19998 5.51999 8.15198V16.16C5.96799 16.16 6.41599 16.384 6.97599 16.664C7.59199 16.944 8.20799 17.28 8.87999 17.28H14.2C15.32 17.28 16.16 16.384 16.16 15.6C16.16 15.432 16.16 15.32 16.104 15.208C16.776 14.928 17.28 14.368 17.28 13.64C17.28 13.304 17.224 13.024 17.112 12.744C17.56 12.464 17.952 11.96 17.952 11.4C17.952 11.064 17.784 10.728 17.616 10.448C18.064 10.112 18.4 9.55198 18.4 8.99198V8.99198ZM17.224 8.99198C17.224 9.71998 16.496 9.77598 16.384 10.112C16.272 10.504 16.832 10.616 16.832 11.288C16.832 11.96 15.992 11.96 15.88 12.352C15.768 12.8 16.16 12.912 16.16 13.584V13.696C16.048 14.256 15.208 14.312 15.04 14.536C14.872 14.816 15.04 14.928 15.04 15.544C15.04 15.88 14.648 16.104 14.2 16.104H8.87999C8.43199 16.104 7.98399 15.88 7.42399 15.6C6.97599 15.376 6.52799 15.152 6.07999 15.04V9.15998C7.47999 8.09598 9.27199 6.52798 9.94399 4.56798V4.45598L10.448 1.65598C10.672 1.59998 10.84 1.59998 11.12 1.59998C11.232 1.59998 11.68 2.27198 11.68 4.39998C11.68 5.23998 11.512 6.13598 11.232 7.19998H11.12C10.784 7.19998 10.56 7.42398 10.56 7.75998C10.56 8.09598 10.784 8.31998 11.12 8.31998H16.16C16.72 8.31998 17.224 8.59998 17.224 8.99198Z" fill="white"/>
<path d="M4.96001 17.28H1.60001C0.984011 17.28 0.480011 16.776 0.480011 16.16V8.32001C0.480011 7.70401 0.984011 7.20001 1.60001 7.20001H4.96001C5.57601 7.20001 6.08001 7.70401 6.08001 8.32001V16.16C6.08001 16.776 5.57601 17.28 4.96001 17.28ZM1.60001 8.32001V16.16H4.96001V8.32001H1.60001Z" fill="white"/>
</svg>
